<svg width="31" height="31" viewBox="0 0 31 31" fill="none" xmlns="http://www.w3.org/2000/svg">
<path d="M15.5 0.916687C13.5849 0.916687 11.6885 1.2939 9.91919 2.02678C8.14986 2.75966 6.5422 3.83386 5.18801 5.18805C2.45311 7.92295 0.916654 11.6323 0.916654 15.5C0.903905 18.8675 2.06989 22.1333 4.21249 24.7313L1.29582 27.6479C1.09347 27.853 0.956388 28.1134 0.901884 28.3963C0.84738 28.6792 0.877893 28.9719 0.989571 29.2375C1.1107 29.4999 1.30706 29.7204 1.55372 29.871C1.80039 30.0216 2.08624 30.0955 2.37499 30.0833H15.5C19.3677 30.0833 23.0771 28.5469 25.812 25.812C28.5469 23.0771 30.0833 19.3678 30.0833 15.5C30.0833 11.6323 28.5469 7.92295 25.812 5.18805C23.0771 2.45314 19.3677 0.916687 15.5 0.916687ZM15.5 27.1667H5.88957L7.24582 25.8104C7.51744 25.5372 7.66989 25.1676 7.66989 24.7823C7.66989 24.397 7.51744 24.0274 7.24582 23.7542C5.33626 21.8467 4.14712 19.3362 3.881 16.6503C3.61487 13.9645 4.28824 11.2694 5.78636 9.02432C7.28448 6.77924 9.51468 5.12304 12.097 4.3379C14.6793 3.55275 17.4539 3.68724 19.9482 4.71844C22.4425 5.74964 24.5021 7.61375 25.776 9.99319C27.05 12.3726 27.4596 15.1202 26.935 17.7677C26.4103 20.4153 24.984 22.799 22.8989 24.5129C20.8138 26.2267 18.199 27.1646 15.5 27.1667Z" fill="white"/>
</svg>
