<svg width="45" height="45" viewBox="0 0 45 45" fill="none" xmlns="http://www.w3.org/2000/svg">
<g clip-path="url(#clip0_2_8)">
<path d="M22.5 0C16.3875 0 15.6244 0.028125 13.2244 0.135C10.8281 0.2475 9.19687 0.624375 7.7625 1.18125C6.28312 1.755 5.02688 2.52562 3.77625 3.77625C2.52562 5.02688 1.75312 6.28125 1.18125 7.7625C0.624375 9.19687 0.245625 10.8281 0.135 13.2244C0.0225 15.6244 0 16.3875 0 22.5C0 28.6125 0.028125 29.3756 0.135 31.7756C0.2475 34.17 0.624375 35.8031 1.18125 37.2375C1.74617 38.7391 2.63174 40.0995 3.77625 41.2238C4.89989 42.3691 6.26043 43.2547 7.7625 43.8188C9.19875 44.3738 10.83 44.7544 13.2244 44.865C15.6244 44.9775 16.3875 45 22.5 45C28.6125 45 29.3756 44.9719 31.7756 44.865C34.17 44.7525 35.8031 44.3738 37.2375 43.8188C38.7387 43.2531 40.099 42.3676 41.2238 41.2238C42.3694 40.1004 43.2552 38.7398 43.8188 37.2375C44.3738 35.8031 44.7544 34.17 44.865 31.7756C44.9775 29.3756 45 28.6125 45 22.5C45 16.3875 44.9719 15.6244 44.865 13.2244C44.7525 10.83 44.3738 9.195 43.8188 7.7625C43.2536 6.26104 42.368 4.90074 41.2238 3.77625C40.1009 2.62995 38.7401 1.74411 37.2375 1.18125C35.8031 0.624375 34.17 0.245625 31.7756 0.135C29.3756 0.0225 28.6125 0 22.5 0ZM22.5 4.05C28.5056 4.05 29.2219 4.08 31.5938 4.18313C33.7875 4.28625 34.9781 4.65 35.7694 4.96125C36.8231 5.36812 37.5694 5.85563 38.3606 6.64125C39.1462 7.42875 39.6338 8.17688 40.0406 9.23063C40.3481 10.0219 40.7156 11.2125 40.815 13.4062C40.9219 15.78 40.9462 16.4925 40.9462 22.5C40.9462 28.5075 40.9181 29.2219 40.8075 31.5938C40.6931 33.7875 40.3275 34.9781 40.0181 35.7694C39.6521 36.7458 39.0768 37.6303 38.3325 38.3606C37.6052 39.1056 36.7214 39.6794 35.745 40.0406C34.9575 40.3481 33.7481 40.7156 31.5544 40.815C29.1656 40.9219 28.4625 40.9462 22.4438 40.9462C16.4231 40.9462 15.72 40.9181 13.3331 40.8075C11.1375 40.6931 9.92813 40.3275 9.14062 40.0181C8.16357 39.6566 7.28002 39.0806 6.555 38.3325C5.80234 37.6101 5.22509 36.725 4.8675 35.745C4.55813 34.9575 4.19438 33.7481 4.08 31.5544C3.99563 29.1919 3.96563 28.4625 3.96563 22.4719C3.96563 16.4794 3.99563 15.7481 4.08 13.3575C4.19438 11.1638 4.55813 9.95625 4.8675 9.16875C5.26125 8.1 5.76562 7.36875 6.555 6.57938C7.34063 5.79375 8.07375 5.2875 9.14062 4.89563C9.92813 4.58437 11.1113 4.21875 13.305 4.10625C15.6956 4.02187 16.3988 3.99375 22.4156 3.99375L22.5 4.05ZM22.5 10.9462C20.9827 10.9462 19.4803 11.2451 18.0786 11.8257C16.6768 12.4064 15.4031 13.2574 14.3303 14.3303C13.2574 15.4031 12.4064 16.6768 11.8257 18.0786C11.2451 19.4803 10.9462 20.9827 10.9462 22.5C10.9462 24.0173 11.2451 25.5197 11.8257 26.9214C12.4064 28.3232 13.2574 29.5969 14.3303 30.6697C15.4031 31.7426 16.6768 32.5936 18.0786 33.1743C19.4803 33.7549 20.9827 34.0538 22.5 34.0538C25.5642 34.0538 28.503 32.8365 30.6697 30.6697C32.8365 28.503 34.0538 25.5642 34.0538 22.5C34.0538 19.4358 32.8365 16.497 30.6697 14.3303C28.503 12.1635 25.5642 10.9462 22.5 10.9462ZM22.5 30C18.3563 30 15 26.6437 15 22.5C15 18.3563 18.3563 15 22.5 15C26.6437 15 30 18.3563 30 22.5C30 26.6437 26.6437 30 22.5 30ZM37.2113 10.4906C37.1852 11.1893 36.8893 11.8507 36.3858 12.3358C35.8823 12.8208 35.2104 13.0919 34.5112 13.0919C33.8121 13.0919 33.1402 12.8208 32.6367 12.3358C32.1332 11.8507 31.8373 11.1893 31.8112 10.4906C31.8112 9.77454 32.0957 9.08779 32.6021 8.58144C33.1084 8.07509 33.7952 7.79063 34.5112 7.79063C35.2273 7.79063 35.9141 8.07509 36.4204 8.58144C36.9268 9.08779 37.2113 9.77454 37.2113 10.4906Z" fill="#A2A0AB"/>
</g>
<defs>
<clipPath id="clip0_2_8">
<rect width="45" height="45" fill="white"/>
</clipPath>
</defs>
</svg>
